<svg width="450" height="229" viewBox="0 0 450 229" fill="none" xmlns="http://www.w3.org/2000/svg">
<path fill-rule="evenodd" clip-rule="evenodd" d="M449.965 229C449.988 227.669 450 226.336 450 225C450 100.736 349.264 0 225 0C100.736 0 0 100.736 0 225C0 226.336 0.0116456 227.669 0.034841 229C2.16895 106.581 102.072 8 225 8C347.928 8 447.831 106.581 449.965 229Z" fill="#FF0000"/>
<path fill-rule="evenodd" clip-rule="evenodd" d="M449.965 229C449.988 227.669 450 226.336 450 225C450 100.736 349.264 0 225 0C100.736 0 0 100.736 0 225C0 226.336 0.0116456 227.669 0.034841 229C2.16895 106.581 102.072 8 225 8C347.928 8 447.831 106.581 449.965 229Z" fill="url(#paint0_linear_1_3)"/>
<path fill-rule="evenodd" clip-rule="evenodd" d="M449.965 229C449.988 227.669 450 226.336 450 225C450 100.736 349.264 0 225 0C100.736 0 0 100.736 0 225C0 226.336 0.0116456 227.669 0.034841 229C2.16895 106.581 102.072 8 225 8C347.928 8 447.831 106.581 449.965 229Z" fill="url(#paint1_linear_1_3)"/>
<path fill-rule="evenodd" clip-rule="evenodd" d="M449.965 229C449.988 227.669 450 226.336 450 225C450 100.736 349.264 0 225 0C100.736 0 0 100.736 0 225C0 226.336 0.0116456 227.669 0.034841 229C2.16895 106.581 102.072 8 225 8C347.928 8 447.831 106.581 449.965 229Z" fill="url(#paint2_linear_1_3)"/>
<defs>
<linearGradient id="paint0_linear_1_3" x1="-9.54585e-06" y1="229" x2="450" y2="229" gradientUnits="userSpaceOnUse">
<stop offset="0.742222" stop-color="#FFC700"/>
<stop offset="1" stop-color="white" stop-opacity="0"/>
</linearGradient>
<linearGradient id="paint1_linear_1_3" x1="0" y1="229" x2="225" y2="229" gradientUnits="userSpaceOnUse">
<stop stop-color="#00FFFF"/>
<stop offset="1" stop-color="white" stop-opacity="0"/>
</linearGradient>
<linearGradient id="paint2_linear_1_3" x1="8" y1="229" x2="225" y2="229" gradientUnits="userSpaceOnUse">
<stop stop-color="#0038FF"/>
<stop offset="1" stop-color="white" stop-opacity="0"/>
</linearGradient>
</defs>
</svg>
